<?xml version="1.0" encoding="UTF-8"?>
<svg width="24px" height="18px" viewBox="0 0 24 18" version="1.1" xmlns="http://www.w3.org/2000/svg" xmlns:xlink="http://www.w3.org/1999/xlink">
    <title>CARD-ICON@svg</title>
    <g id="Assets" stroke="none" stroke-width="1" fill="none" fill-rule="evenodd">
        <g transform="translate(-428.000000, -583.000000)" fill="#FFFFFF" id="CARD-ICON">
            <path d="M442.5,590.333333 L447.5,590.333333 C447.776,590.333333 448,590.109333 448,589.833333 C448,589.557333 447.776,589.333333 447.5,589.333333 L442.5,589.333333 C442.224,589.333333 442,589.557333 442,589.833333 C442,590.109333 442.224,590.333333 442.5,590.333333 L442.5,590.333333 Z M442.5,593.333333 L447.5,593.333333 C447.776,593.333333 448,593.109333 448,592.833333 C448,592.557333 447.776,592.333333 447.5,592.333333 L442.5,592.333333 C442.224,592.333333 442,592.557333 442,592.833333 C442,593.109333 442.224,593.333333 442.5,593.333333 L442.5,593.333333 Z M452,586.5 L452,596.833333 C452,598.766 450.432667,600.333333 448.5,600.333333 L431,600.333333 C429.344,600.331333 428.002,598.989333 428,597.333333 L428,586.5 C428,584.567333 429.567333,583 431.5,583 L448.5,583 C450.432667,583 452,584.567333 452,586.5 L452,586.5 Z M450.666667,586.487333 C450.666667,585.302667 449.697333,584.333333 448.512667,584.333333 L441.5,584.333333 C441.224,584.333333 441,584.557333 441,584.833333 L441,585.166667 C441,585.442667 440.776,585.666667 440.5,585.666667 L439.5,585.666667 C439.224,585.666667 439,585.442667 439,585.166667 L439,584.833333 C439,584.557333 438.776,584.333333 438.5,584.333333 L431.487333,584.333333 C430.302667,584.333333 429.333333,585.302667 429.333333,586.487333 L429.333333,596.846 C429.333333,598.030667 430.302667,599 431.487333,599 L448.512667,599 C449.697333,599 450.666667,598.030667 450.666667,596.846 L450.666667,586.487333 Z M435.5,593.333333 L434.5,593.333333 C433.119333,593.333333 432,594.452667 432,595.833333 C432,596.109333 432.224,596.333333 432.5,596.333333 L437.5,596.333333 C437.776,596.333333 438,596.109333 438,595.833333 C438,594.452667 436.880667,593.333333 435.5,593.333333 L435.5,593.333333 Z M434.988,592.333371 C436.092667,592.34 436.993333,591.45 437.000037,590.345333 C437.006667,589.240667 436.116667,588.34 435.012,588.333296 C433.907333,588.326667 433.006667,589.216667 432.999963,590.321333 C432.993333,591.426 433.883333,592.326667 434.988,592.333371 L434.988,592.333371 Z M442.5,596.333333 L445.5,596.333333 C445.776,596.333333 446,596.109333 446,595.833333 C446,595.557333 445.776,595.333333 445.5,595.333333 L442.5,595.333333 C442.224,595.333333 442,595.557333 442,595.833333 C442,596.109333 442.224,596.333333 442.5,596.333333 L442.5,596.333333 Z"></path>
        </g>
    </g>
</svg>