<?xml version="1.0" encoding="UTF-8"?>
<svg width="24px" height="24px" viewBox="0 0 24 24" version="1.1" xmlns="http://www.w3.org/2000/svg" xmlns:xlink="http://www.w3.org/1999/xlink">
    <title>QR-CODE-ICON@svg</title>
    <g id="Assets" stroke="none" stroke-width="1" fill="none" fill-rule="evenodd">
        <g transform="translate(-315.000000, -580.000000)" fill="#FFFFFF" id="QR-CODE-ICON">
            <path d="M338.999691,598.375004 L338.999691,604 L333.390351,604 L333.390351,602.602423 L337.580879,602.602423 L337.580879,598.375004 L338.999691,598.375004 Z M316.40024,598.386803 L316.40024,602.58544 L320.609986,602.58544 L320.609986,603.988361 L315.016959,603.988361 L315.016959,598.386803 L316.40024,598.386803 Z M324.886525,591.265479 L324.885959,592.652877 L322.09348,592.652931 L322.09348,596.878287 L323.479959,596.877877 L323.480276,598.275442 L322.090434,598.275442 L322.090434,599.669035 L324.882916,599.669035 L324.882916,598.295411 L326.291368,598.295411 L326.291368,599.679816 L327.688476,599.679816 L327.688476,601.082268 L320.682778,601.082268 L320.682778,599.683191 L319.268959,599.682877 L319.268959,598.283877 L320.655638,598.284536 L320.655638,595.465429 L319.268959,595.464877 L319.269123,594.069117 L320.658403,594.069117 L320.658403,592.662118 L317.877124,592.662118 L317.877124,591.265479 L324.886525,591.265479 Z M327.706612,595.471977 L327.699534,595.465461 L327.7057,595.465 L327.706612,594.070837 L331.925359,594.070837 L331.9247,592.659 L333.3237,592.659 L333.324014,594.056119 L336.12634,594.056119 L336.12634,601.08066 L329.116517,601.08066 L329.116517,598.291787 L327.706565,598.291787 L327.7057,596.878 L329.092845,596.878273 L329.092845,595.465461 L327.7057,595.465 L327.706612,595.471977 Z M319.261959,599.689877 L319.262528,601.07631 L317.874935,601.07631 L317.874935,599.69003 L319.261959,599.689877 Z M334.724544,595.485711 L330.534391,595.485711 L330.534391,599.674646 L334.724544,599.674646 L334.724544,595.485711 Z M319.261959,595.471877 L319.261959,598.277877 L317.875577,598.277992 L317.875577,595.47201 L319.261959,595.471877 Z M333.310373,596.886241 L333.310373,598.265865 L331.934921,598.265865 L331.934921,596.886241 L333.310373,596.886241 Z M324.885959,594.064877 L324.886516,596.871743 L323.486959,596.870877 L323.487345,594.065808 L324.885959,594.064877 Z M327.698959,595.471877 L327.698959,596.870877 L326.313399,596.871743 L326.313399,595.47201 L327.698959,595.471877 Z M326.292959,592.657877 L326.293819,594.059245 L324.892959,594.058877 L324.892959,592.658877 L325.59356,592.65916 L326.292959,592.657877 Z M327.698132,589.860936 L327.698132,591.253263 L331.917959,591.252877 L331.917959,592.652877 L329.109567,592.652481 L326.299959,592.651877 L326.300602,589.860936 L327.698132,589.860936 Z M333.330959,591.252877 L336.123241,591.253244 L336.123241,592.652978 L333.330959,592.652877 L333.330959,591.252877 Z M336.120996,582.824877 L336.120996,589.8332 L333.324014,589.8332 L333.323959,591.245877 L331.924959,591.245877 L331.925359,589.849747 L329.122751,589.849747 L329.122751,582.824877 L336.120996,582.824877 Z M324.877942,582.826706 L324.877942,584.223017 L326.291959,584.222877 L326.291959,585.620877 L324.894349,585.621016 L324.894349,589.831419 L317.876463,589.831419 L317.876463,582.826706 L324.877942,582.826706 Z M334.725153,584.22972 L330.528391,584.22972 L330.528391,588.422357 L334.725153,588.422357 L334.725153,584.22972 Z M323.465553,584.23108 L319.2754,584.23108 L319.2754,588.421045 L323.465553,588.421045 L323.465553,584.23108 Z M326.298959,585.626877 L327.685903,585.627771 L327.685903,588.421612 L326.299107,588.421612 L326.298959,585.626877 Z M333.309904,585.636719 L333.309904,587.015452 L331.933281,587.015452 L331.933281,585.636719 L333.309904,585.636719 Z M322.072523,585.644875 L322.072523,587.013155 L320.687602,587.013155 L320.687602,585.644875 L322.072523,585.644875 Z M338.9997,580 L338.9997,585.624996 L337.596357,585.624996 L337.596357,581.41164 L333.374704,581.41164 L333.374704,580 L338.9997,580 Z M320.624696,580 L320.624696,581.402218 L316.413824,581.402218 L316.413824,585.606058 L314.9997,585.606058 L314.9997,580 L320.624696,580 Z M327.686953,582.829954 L327.686953,584.216187 L326.298959,584.215877 L326.299313,582.829954 L327.686953,582.829954 Z"></path>
        </g>
    </g>
</svg>